<?xml version="1.0" standalone="no"?>
<!DOCTYPE svg PUBLIC "-//W3C//DTD SVG 20010904//EN"
 "http://www.w3.org/TR/2001/REC-SVG-20010904/DTD/svg10.dtd">
<svg version="1.0" xmlns="http://www.w3.org/2000/svg"
 width="700.000000pt" height="700.000000pt" viewBox="0 0 700.000000 700.000000"
 preserveAspectRatio="xMidYMid meet">
<metadata>
Created by potrace 1.14, written by Peter Selinger 2001-2017
</metadata>
<g transform="translate(0.000000,700.000000) scale(0.100000,-0.100000)"
fill="#000000" stroke="none">
<path d="M5469 6406 c-25 -7 -60 -21 -78 -32 -75 -48 -440 -427 -581 -603 -19
-25 -40 -49 -46 -55 -6 -6 -53 -68 -106 -138 -388 -514 -634 -1034 -758 -1602
-28 -129 -33 -157 -45 -243 -3 -21 -7 -47 -10 -58 -2 -11 -7 -47 -10 -80 -3
-33 -8 -73 -10 -90 -4 -34 -15 -156 -21 -236 -2 -30 -6 -196 -9 -370 -6 -302
-5 -318 15 -370 27 -75 79 -132 148 -166 l57 -28 600 -2 c330 -1 608 -2 618
-2 15 -1 17 -15 17 -146 l0 -145 -27 0 c-104 -2 -224 -103 -254 -214 -7 -27
-11 -204 -11 -518 0 -441 1 -481 18 -529 25 -70 90 -140 156 -170 50 -22 64
-23 268 -23 213 -1 215 0 265 26 89 47 144 117 161 203 13 67 11 5323 -2 5375
-15 60 -35 98 -75 138 -71 72 -184 103 -280 78z m-228 -3485 c-13 -8 -844 -6
-857 2 -6 3 -9 23 -8 44 1 21 5 103 9 183 3 80 7 159 9 175 2 17 6 66 10 110
6 71 19 163 30 220 2 11 7 42 10 69 4 27 9 52 11 55 1 3 6 22 9 41 3 20 19 87
35 150 96 373 253 717 484 1060 62 93 172 244 202 277 5 6 21 26 35 44 l25 32
3 -1228 c1 -729 -2 -1231 -7 -1234z"/>
<path d="M1365 6107 c-80 -27 -154 -100 -180 -177 -16 -50 -18 -99 -19 -530
-1 -521 2 -587 39 -735 31 -120 121 -310 194 -406 143 -187 354 -338 574 -409
60 -20 67 -24 68 -48 0 -15 0 -686 0 -1492 0 -1628 -4 -1526 68 -1618 110
-139 330 -142 445 -5 14 17 36 53 48 80 l22 48 2 1500 c1 825 2 1503 3 1506 0
3 31 16 69 29 351 121 625 393 742 740 54 158 59 225 60 773 0 320 -3 523 -10
547 -15 54 -68 130 -115 162 -121 84 -286 63 -384 -48 -74 -84 -74 -85 -76
-654 -2 -549 -3 -558 -61 -673 -42 -82 -114 -166 -188 -216 l-41 -29 0 722 -1
721 -26 55 c-32 69 -79 117 -144 147 -167 76 -368 -24 -403 -200 -6 -32 -10
-315 -10 -740 1 -379 -2 -691 -5 -694 -10 -11 -118 81 -161 137 -51 66 -87
140 -109 225 -13 50 -15 140 -16 555 0 277 -4 511 -10 529 -28 98 -117 185
-210 206 -62 14 -104 12 -165 -8z"/>
</g>
</svg>
